<svg width="900" height="800" xmlns="http://www.w3.org/2000/svg">
  <style>
    .box { fill: #f0f0f0; stroke: #333; stroke-width: 1px; }
    .text { font-family: sans-serif; font-size: 14px; dominant-baseline: middle; text-anchor: middle; }
    .arrow { stroke: #333; stroke-width: 2; marker-end: url(#arrowhead); }
  </style>

  <!-- Flecha -->
  <defs>
    <marker id="arrowhead" markerWidth="10" markerHeight="7"
      refX="5" refY="3.5" orient="auto">
      <polygon points="0 0, 10 3.5, 0 7" fill="#333"/>
    </marker>
  </defs>

  <!-- Nodo inicial -->
  <rect x="350" y="20" width="200" height="40" class="box"/>
  <text x="450" y="40" class="text">Inicio de la Shell</text>

  <!-- Pregunta: ¿Login shell? -->
  <rect x="330" y="80" width="240" height="40" class="box"/>
  <text x="450" y="100" class="text">¿Es una Login Shell?</text>

  <!-- Sí -->
  <line x1="450" y1="60" x2="450" y2="80" class="arrow"/>
  <rect x="310" y="140" width="280" height="40" class="box"/>
  <text x="450" y="160" class="text">¿Se usó --login o es login real?</text>

  <!-- No (Login shell) -->
  <line x1="450" y1="120" x2="450" y2="140" class="arrow"/>

  <!-- Usuario normal -->
  <rect x="100" y="200" width="180" height="40" class="box"/>
  <text x="190" y="220" class="text">Usuario normal</text>

  <!-- sudo/su -l -->
  <rect x="350" y="200" width="180" height="40" class="box"/>
  <text x="440" y="220" class="text">sudo/su -l</text>

  <!-- Otros casos -->
  <rect x="600" y="200" width="180" height="40" class="box"/>
  <text x="690" y="220" class="text">Otros casos</text>

  <!-- Archivos para usuario normal -->
  <rect x="60" y="260" width="260" height="100" class="box"/>
  <text x="190" y="280" class="text">/etc/profile</text>
  <text x="190" y="300" class="text">~/.bash_profile</text>
  <text x="190" y="320" class="text">~/.bash_login</text>
  <text x="190" y="340" class="text">~/.profile (último recurso)</text>

  <!-- Archivos para sudo/su -l -->
  <rect x="330" y="260" width="240" height="60" class="box"/>
  <text x="450" y="280" class="text">/etc/profile</text>
  <text x="450" y="300" class="text">~/.bash_profile</text>

  <!-- Archivos logout -->
  <rect x="600" y="260" width="180" height="40" class="box"/>
  <text x="690" y="280" class="text">~/.bash_logout</text>

  <!-- Fin de sesión -->
  <rect x="600" y="320" width="180" height="40" class="box"/>
  <text x="690" y="340" class="text">Fin de sesión</text>

  <!-- No a Login Shell -->
  <line x1="330" y1="100" x2="200" y2="100" class="arrow"/>
  <line x1="200" y1="100" x2="200" y2="400" class="arrow"/>
  <rect x="80" y="400" width="240" height="40" class="box"/>
  <text x="200" y="420" class="text">No se cargan archivos por defecto</text>

  <!-- Interactiva no-login -->
  <rect x="550" y="400" width="280" height="40" class="box"/>
  <text x="690" y="420" class="text">¿Existe ~/.bashrc?</text>

  <!-- Sí a bashrc -->
  <rect x="550" y="460" width="280" height="40" class="box"/>
  <text x="690" y="480" class="text">~/.bashrc se carga</text>

  <!-- /etc/bash.bashrc -->
  <rect x="550" y="520" width="280" height="40" class="box"/>
  <text x="690" y="540" class="text">/etc/bash.bashrc (opcional)</text>

  <!-- Fin interactiva -->
  <rect x="550" y="580" width="280" height="40" class="box"/>
  <text x="690" y="600" class="text">Fin</text>

  <!-- Shell no interactiva -->
  <rect x="300" y="500" width="200" height="40" class="box"/>
  <text x="400" y="520" class="text">¿BASH_ENV definida?</text>

  <!-- Sí a BASH_ENV -->
  <rect x="280" y="560" width="240" height="40" class="box"/>
  <text x="400" y="580" class="text">Cargar $BASH_ENV</text>

  <!-- No a BASH_ENV -->
  <rect x="280" y="620" width="240" height="40" class="box"/>
  <text x="400" y="640" class="text">Ningún archivo se carga</text>

</svg>